<?xml version="1.0" encoding="iso-8859-1"?>
<!-- Uploaded to: SVG Repo, www.svgrepo.com, Generator: SVG Repo Mixer Tools -->
<!-- id="Layer_1" -->
<svg fill="#000000" height="800px" width="800px" version="1.1" xmlns="http://www.w3.org/2000/svg" xmlns:xlink="http://www.w3.org/1999/xlink" 
	 viewBox="0 0 512.046 512.046" xml:space="preserve">
<g transform="translate(-1)">
	<g>
		<path 
		id = "genericShoe"
		d="M510.413,285.858l-8.544-19.961c-0.062-0.145-0.148-0.274-0.217-0.415c-1.405-3.563-3.674-7.096-7-10.449
			c-13.832-13.941-43.274-21.605-92.647-21.5c-0.306,0-0.616,0.002-0.924,0.003c-1.215,0.005-2.437,0.013-3.676,0.027
			c-0.841,0.009-1.692,0.022-2.544,0.036c-0.715,0.012-1.429,0.023-2.151,0.038c-1.378,0.027-2.773,0.062-4.179,0.1
			c-0.129,0.004-0.253,0.005-0.382,0.009l-39.098-18.398l0.249-0.415c2.425-4.041,1.114-9.283-2.927-11.708
			c-4.041-2.425-9.283-1.114-11.708,2.927l-1.135,1.893l-19.083-8.98l0.719-1.199c2.425-4.041,1.114-9.283-2.927-11.708
			c-4.041-2.425-9.283-1.114-11.708,2.927l-1.606,2.676l-19.083-8.979l1.19-1.983c2.425-4.041,1.114-9.283-2.927-11.708
			c-4.041-2.425-9.283-1.114-11.708,2.927l-2.076,3.46l-19.083-8.979l1.66-2.766c2.425-4.041,1.114-9.283-2.927-11.708
			c-4.041-2.425-9.283-1.114-11.708,2.927l-2.546,4.244l-22.752-10.706c-3.898-1.834-8.553-0.475-10.851,3.169
			c-0.889,1.41-2.811,4.099-5.736,7.639c-4.949,5.989-10.852,11.994-17.669,17.592c-14.277,11.724-29.902,19.827-46.924,23.466
			c-0.767-0.069-1.55-0.045-2.331,0.102c-12.548,2.353-25.802,2.319-39.784-0.391c-0.001,0-0.002,0-0.002-0.001
			c-12.715-2.462-25.809-7.066-39.348-14.023c-1.06-0.548-2.12-1.101-3.187-1.678c-0.445-0.239-0.891-0.486-1.336-0.731
			c-1.471-0.81-2.946-1.634-4.432-2.499c-1.182-0.688-2.438-1.044-3.685-1.133c-6.901-1.739-13.609-11.559-13.609-20.661
			c0-4.713-3.82-8.533-8.533-8.533s-8.533,3.821-8.533,8.533c0,14.103,8.419,28.595,20.314,34.839
			c-0.567,3.006-1.179,6.244-1.83,9.678c-2.407,12.693-4.839,25.386-7.143,37.229c-0.321,1.649-0.321,1.649-0.642,3.297
			c-0.478,2.448-0.945,4.832-1.4,7.146c-0.002,0.01-0.005,0.019-0.007,0.029c-4.568,23.244-7.862,38.909-8.842,41.878
			c-0.109,0.322-0.199,0.653-0.269,0.992c-0.018,0.086-0.026,0.171-0.041,0.257c-0.037,0.213-0.073,0.426-0.095,0.644
			c-0.019,0.19-0.024,0.378-0.03,0.567c-0.003,0.091-0.014,0.181-0.014,0.273v0.221c0,0.014,0,0.028,0,0.042v50.638
			c0,4.64,3.707,8.43,8.346,8.531c0.878,0.019,0.878,0.019,5.054,0.112c5.714,0.127,8.902,0.198,14.287,0.319
			c15.386,0.346,32.531,0.738,50.995,1.167c52.753,1.226,105.506,2.508,154.74,3.781c25.951,0.671,50.262,1.324,72.639,1.952
			c14.707,0.413,28.514,0.813,41.355,1.201c70.483,2.135,118.744-10.72,149.103-32.552
			C511.729,321.35,516.594,302.634,510.413,285.858z M184.172,261.744l23.893,35.84c-17.303-0.469-34.891-1.069-52.63-1.784
			c-0.412-0.017-0.824-0.034-1.237-0.05c-5.411-0.22-10.836-0.45-16.272-0.69c-0.312-0.014-0.625-0.028-0.937-0.042l22.182-33.273
			H184.172z M36.261,207.037c0.353-1.859,0.694-3.663,1.023-5.404c10.532,5.386,20.794,9.485,30.778,12.407L47.64,244.675H29.038
			c0.021-0.11,0.041-0.212,0.066-0.34C31.414,232.465,33.85,219.751,36.261,207.037z M64.87,291.265
			c-10.38-0.617-20.36-1.243-29.85-1.87c-5.417-0.358-10.361-0.695-14.811-1.007c1.398-6.38,3.234-15.34,5.477-26.643h21.952
			l19.783,29.671c-0.183-0.011-0.369-0.021-0.551-0.032C66.199,291.344,65.537,291.305,64.87,291.265z M123.038,285.178
			l-5.941,8.911c-1.115-0.054-2.231-0.11-3.347-0.165c-2.829-0.14-5.653-0.282-8.469-0.426c-1.259-0.064-2.518-0.129-3.778-0.194
			c-3.967-0.206-7.923-0.416-11.866-0.63c-0.301-0.016-0.597-0.033-0.897-0.049L62.462,253.21l23.439-35.162
			c12.242,1.921,24.023,2.025,35.311,0.457l23.137,34.706L123.038,285.178z M393.316,250.698c0.666-0.013,1.329-0.026,1.987-0.037
			c0.699-0.011,1.403-0.023,2.093-0.031c0.547-0.007,1.083-0.01,1.624-0.014c46.722-0.379,72.993,6.198,83.157,16.443
			c3.221,3.247,4.093,6.151,3.771,8.721c-10.292,9.508-45.696,16.696-99.856,20.248l0,0L393.316,250.698z M183.541,190.081
			c7.714-6.334,14.379-13.114,19.994-19.91c0.943-1.141,1.804-2.216,2.583-3.218l14.776,6.953l-14.229,23.714
			c-2.425,4.041-1.114,9.283,2.927,11.708c4.041,2.425,9.283,1.114,11.708-2.927l15.115-25.191l19.083,8.979l-14.699,24.498
			c-2.425,4.041-1.114,9.283,2.927,11.708c4.041,2.425,9.283,1.114,11.708-2.927l15.585-25.975l19.083,8.979l-15.169,25.282
			c-2.425,4.041-1.114,9.283,2.927,11.708c4.041,2.425,9.283,1.114,11.708-2.927l16.055-26.759l19.083,8.979l-15.639,26.065
			c-2.425,4.041-1.114,9.283,2.927,11.708c4.041,2.425,9.283,1.114,11.708-2.927l16.526-27.542l36.37,17.114l-7.944,49.848
			c-32.943,1.571-71.71,2.071-115.185,1.496c-8.092-0.107-16.286-0.252-24.553-0.426l-33.076-49.613c-1.583-2.374-4.247-3.8-7.1-3.8
			h-29.566l-20.091-30.136C155.04,209.633,169.89,201.291,183.541,190.081z M487.553,317.734
			c-27.112,19.497-71.692,31.372-138.617,29.344c-12.855-0.388-26.674-0.788-41.392-1.202c-22.39-0.628-46.714-1.281-72.677-1.953
			c-49.251-1.274-102.018-2.556-154.785-3.782c-18.468-0.429-35.617-0.821-51.008-1.167c-4.264-0.096-7.15-0.161-11.004-0.246
			v-33.379c4.713,0.332,9.999,0.693,15.825,1.078c19.758,1.305,41.585,2.609,64.855,3.827c7.305,0.382,14.597,0.746,21.872,1.094
			c0.161,0.008,0.32,0.016,0.481,0.024c0,0,0.001,0,0.001,0c0,0,0.001,0,0.001,0c0.456,0.022,0.91,0.042,1.366,0.063
			c3.575,0.17,7.145,0.335,10.71,0.496c0.371,0.017,0.742,0.034,1.113,0.05c40.821,1.835,80.911,3.099,118.951,3.602
			c11.999,0.159,23.601,0.243,34.817,0.254c0.053,0,0.106,0,0.158,0c1.798,0.002,3.586,0.001,5.364-0.001
			c0.118,0,0.235,0,0.353-0.001c1.745-0.003,3.48-0.007,5.205-0.013c0.109,0,0.216-0.001,0.325-0.001
			c10.852-0.041,21.314-0.158,31.372-0.354c0.042-0.001,0.084-0.002,0.126-0.002c1.393-0.027,2.774-0.057,4.151-0.088
			c0.381-0.008,0.765-0.016,1.146-0.025c1.238-0.028,2.466-0.058,3.691-0.089c0.498-0.012,0.997-0.025,1.492-0.038
			c1.147-0.03,2.287-0.061,3.423-0.093c0.575-0.016,1.15-0.033,1.723-0.049c1.076-0.032,2.147-0.065,3.213-0.098
			c0.613-0.019,1.225-0.039,1.835-0.059c1.025-0.034,2.047-0.068,3.063-0.104c0.648-0.023,1.293-0.046,1.938-0.07
			c0.975-0.036,1.949-0.072,2.915-0.109c0.67-0.026,1.334-0.053,1.999-0.08c0.94-0.038,1.881-0.076,2.813-0.116
			c0.668-0.028,1.328-0.058,1.991-0.088c0.921-0.041,1.843-0.081,2.755-0.124c0.681-0.032,1.353-0.065,2.029-0.098
			c0.879-0.042,1.761-0.084,2.632-0.128c0.753-0.038,1.495-0.079,2.241-0.118c1.343-0.071,2.676-0.144,4-0.219
			c0.927-0.053,1.856-0.105,2.773-0.159c0.615-0.037,1.221-0.075,1.832-0.113c0.891-0.055,1.783-0.109,2.664-0.166
			c0.628-0.04,1.247-0.082,1.87-0.124c0.849-0.056,1.699-0.113,2.54-0.171c0.624-0.043,1.241-0.088,1.86-0.132
			c0.836-0.06,1.672-0.12,2.499-0.181c0.597-0.044,1.19-0.09,1.782-0.135c0.837-0.064,1.67-0.129,2.497-0.195
			c0.576-0.046,1.148-0.093,1.719-0.139c0.838-0.069,1.671-0.139,2.5-0.21c0.545-0.047,1.089-0.094,1.63-0.141
			c0.853-0.075,1.699-0.151,2.542-0.228c0.501-0.046,1.003-0.092,1.5-0.138c0.888-0.083,1.767-0.169,2.643-0.254
			c0.442-0.043,0.887-0.086,1.326-0.13c0.947-0.095,1.884-0.192,2.817-0.29c0.358-0.038,0.72-0.074,1.076-0.112
			c1.137-0.121,2.262-0.245,3.378-0.371c0.139-0.016,0.282-0.031,0.421-0.047c2.584-0.294,5.11-0.6,7.578-0.918
			c0.099-0.013,0.196-0.026,0.295-0.039c1.104-0.143,2.198-0.289,3.279-0.437c0.25-0.034,0.495-0.07,0.744-0.104
			c0.931-0.129,1.856-0.26,2.77-0.393c0.291-0.042,0.578-0.086,0.867-0.128c0.86-0.127,1.714-0.256,2.557-0.386
			c0.313-0.049,0.624-0.098,0.935-0.147c0.812-0.128,1.617-0.257,2.414-0.388c0.317-0.052,0.632-0.105,0.947-0.157
			c0.788-0.132,1.568-0.265,2.342-0.4c0.301-0.053,0.602-0.105,0.901-0.158c0.787-0.14,1.565-0.281,2.336-0.425
			c0.27-0.05,0.542-0.1,0.81-0.151c0.81-0.153,1.61-0.308,2.403-0.465c0.215-0.043,0.433-0.085,0.648-0.127
			c0.873-0.175,1.734-0.352,2.586-0.532c0.126-0.027,0.256-0.053,0.382-0.079c3.978-0.845,7.72-1.743,11.222-2.695
			c0.119-0.032,0.234-0.065,0.352-0.098c0.737-0.202,1.465-0.406,2.18-0.613c0.175-0.051,0.346-0.102,0.52-0.153
			c0.651-0.191,1.295-0.383,1.928-0.578c0.2-0.061,0.396-0.124,0.594-0.185c0.6-0.188,1.193-0.377,1.776-0.569
			c0.205-0.067,0.408-0.135,0.611-0.203c0.569-0.19,1.13-0.382,1.682-0.576c0.199-0.07,0.397-0.139,0.594-0.21
			c0.55-0.196,1.09-0.395,1.624-0.595c0.184-0.069,0.369-0.138,0.551-0.207c0.548-0.209,1.085-0.421,1.615-0.634
			c0.154-0.062,0.31-0.123,0.462-0.185c0.571-0.233,1.128-0.469,1.678-0.706c0.101-0.044,0.206-0.087,0.306-0.131
			c1.975-0.864,3.813-1.76,5.51-2.688c0.045-0.025,0.088-0.05,0.133-0.075c0.503-0.277,0.995-0.557,1.473-0.84
			c0.126-0.074,0.245-0.15,0.369-0.225c0.391-0.236,0.777-0.473,1.15-0.712c0.152-0.097,0.298-0.196,0.447-0.294
			c0.226-0.149,0.459-0.296,0.678-0.446l0.423,0.986C498.026,301.604,495.28,312.166,487.553,317.734z"/>
	</g>
</g>
</svg>